# xmcd CD database file
#
# Track frame offsets:
#	150
#	14149
#	29067
#	43985
#	57537
#	76802
#	89588
#	103642
#	134568
#	148720
#	164224
#	180870
#
# Disc length: 3591 seconds
#
# Revision: 0
# Processed by: cddbd v1.4PL0 Copyright (c) Steve Scherf et al.
# Submitted via: CDex 1.50
#
DISCID=b40e050c
DTITLE=Dexter Gordon - The Chase
DYEAR=1900
DGENRE=Jazz
TTITLE0=Dexter Gordon - Track 1
TTITLE1=Dexter Gordon - Track 2
TTITLE2=Dexter Gordon - Track 3
TTITLE3=Dexter Gordon - Track 4
TTITLE4=Dexter Gordon - Track 5
TTITLE5=Dexter Gordon - Track 6
TTITLE6=Dexter Gordon - Track 7
TTITLE7=Dexter Gordon - Track 8
TTITLE8=Dexter Gordon - Track 9
TTITLE9=Dexter Gordon - Track 10
TTITLE10=Dexter Gordon - Track 11
TTITLE11=Dexter Gordon - Track 13
EXTD=
EXTT0=
EXTT1=
EXTT2=
EXTT3=
EXTT4=
EXTT5=
EXTT6=
EXTT7=
EXTT8=
EXTT9=
EXTT10=
EXTT11=
PLAYORDER=
